<svg version="1.1" xmlns="http://www.w3.org/2000/svg" viewBox="0 0 1825 273" width="1825" height="273" filter="invert(93%) hue-rotate(180deg)">
  <!-- svg-source:excalidraw -->
  
  <defs>
    <style>
      @font-face {
        font-family: "Virgil";
        src: url("https://excalidraw.com/Virgil.woff2");
      }
      @font-face {
        font-family: "Cascadia";
        src: url("https://excalidraw.com/Cascadia.woff2");
      }
    </style>
  </defs>
  <rect x="0" y="0" width="1825" height="273" fill="#ffffff"></rect><g stroke-linecap="round"><g transform="translate(172 47.48428498022986) rotate(0 37.39620368085801 -2.339666123403589)"><path d="M0.22 -0.5 C12.68 -1.21, 63.54 -3.8, 75.91 -4.18 M-1.12 -1.81 C11.16 -2.39, 63.02 -2.57, 75.44 -3.07" stroke="#000000" stroke-width="1" fill="none"></path></g><g transform="translate(172 47.48428498022986) rotate(0 37.39620368085801 -2.339666123403589)"><path d="M46.62 9.25 C57.19 2.48, 70.62 0.5, 75.39 -3.23 M46.71 6.89 C55.42 3.72, 63.54 1.18, 75.87 -3.66" stroke="#000000" stroke-width="1" fill="none"></path></g><g transform="translate(172 47.48428498022986) rotate(0 37.39620368085801 -2.339666123403589)"><path d="M46.22 -11.26 C56.96 -9.9, 70.55 -3.73, 75.39 -3.23 M46.31 -13.62 C55.06 -11.23, 63.28 -8.21, 75.87 -3.66" stroke="#000000" stroke-width="1" fill="none"></path></g></g><g transform="translate(10 10) rotate(0 75 37.5)"><text x="0" y="18" font-family="Virgil, Segoe UI Emoji" font-size="20px" fill="#000000" text-anchor="start" style="white-space: pre;" direction="ltr">Server receives</text><text x="0" y="43" font-family="Virgil, Segoe UI Emoji" font-size="20px" fill="#000000" text-anchor="start" style="white-space: pre;" direction="ltr">a request</text><text x="0" y="68" font-family="Virgil, Segoe UI Emoji" font-size="20px" fill="#000000" text-anchor="start" style="white-space: pre;" direction="ltr">and parses it </text></g><g transform="translate(266 12) rotate(0 86 37.5)"><text x="0" y="18" font-family="Virgil, Segoe UI Emoji" font-size="20px" fill="#000000" text-anchor="start" style="white-space: pre;" direction="ltr">Is the requested</text><text x="0" y="43" font-family="Virgil, Segoe UI Emoji" font-size="20px" fill="#000000" text-anchor="start" style="white-space: pre;" direction="ltr">route mapped</text><text x="0" y="68" font-family="Virgil, Segoe UI Emoji" font-size="20px" fill="#000000" text-anchor="start" style="white-space: pre;" direction="ltr">to a handler?</text></g><g stroke-linecap="round"><g transform="translate(337.54629417829767 105) rotate(0 2.1229933298076276 33.73230030126871)"><path d="M1.09 -0.63 C1.9 10.84, 3.65 56.63, 4.05 68.09 M0.2 1.66 C0.89 12.88, 1.96 55.75, 2.91 66.54" stroke="#000000" stroke-width="1" fill="none"></path></g><g transform="translate(337.54629417829767 105) rotate(0 2.1229933298076276 33.73230030126871)"><path d="M-9.86 38.33 C-4.44 43.72, -1.6 52.97, 4.6 66.32 M-9 37.98 C-6.04 46.57, -2.08 54.58, 3.54 67.06" stroke="#000000" stroke-width="1" fill="none"></path></g><g transform="translate(337.54629417829767 105) rotate(0 2.1229933298076276 33.73230030126871)"><path d="M10.63 37.25 C11.3 43.08, 9.38 52.57, 4.6 66.32 M11.5 36.9 C8.46 45.63, 6.42 53.95, 3.54 67.06" stroke="#000000" stroke-width="1" fill="none"></path></g></g><g transform="translate(357 113) rotate(0 13 12.5)"><text x="0" y="18" font-family="Virgil, Segoe UI Emoji" font-size="20px" fill="#000000" text-anchor="start" style="white-space: pre;" direction="ltr">No</text></g><g transform="translate(260 191) rotate(0 87 36)"><text x="0" y="17" font-family="Virgil, Segoe UI Emoji" font-size="19.584876543209887px" fill="#000000" text-anchor="start" style="white-space: pre;" direction="ltr">Execute route</text><text x="0" y="41" font-family="Virgil, Segoe UI Emoji" font-size="19.584876543209887px" fill="#000000" text-anchor="start" style="white-space: pre;" direction="ltr">not found handler</text><text x="0" y="65" font-family="Virgil, Segoe UI Emoji" font-size="19.584876543209887px" fill="#000000" text-anchor="start" style="white-space: pre;" direction="ltr">if user added one</text></g><g stroke-linecap="round"><g transform="translate(472.0000000000001 37.48663820956415) rotate(0 46.02031295701647 -1.4391264758994566)"><path d="M0.44 -0.2 C15.78 -0.66, 77.51 -2.41, 92.83 -2.68 M-0.79 -1.35 C14.28 -1.69, 75.71 -1.75, 91.64 -1.61" stroke="#000000" stroke-width="1" fill="none"></path></g><g transform="translate(472.0000000000001 37.48663820956415) rotate(0 46.02031295701647 -1.4391264758994566)"><path d="M63.08 7.79 C72.29 3.16, 84.12 2.54, 90.45 -1.87 M62.67 9.16 C74.06 5.03, 84.65 1.22, 92.38 -1.77" stroke="#000000" stroke-width="1" fill="none"></path></g><g transform="translate(472.0000000000001 37.48663820956415) rotate(0 46.02031295701647 -1.4391264758994566)"><path d="M63.14 -12.73 C72.34 -9.82, 84.15 -2.9, 90.45 -1.87 M62.73 -11.37 C74.16 -7.47, 84.72 -3.26, 92.38 -1.77" stroke="#000000" stroke-width="1" fill="none"></path></g></g><g transform="translate(493 44) rotate(0 17 12.5)"><text x="0" y="18" font-family="Virgil, Segoe UI Emoji" font-size="20px" fill="#000000" text-anchor="start" style="white-space: pre;" direction="ltr">Yes</text></g><g transform="translate(582.6400000000001 14.767123287671211) rotate(0 79.18 27.116438356164394)"><text x="0" y="19.116438356164384" font-family="Virgil, Segoe UI Emoji" font-size="21.693150684931503px" fill="#000000" text-anchor="start" style="white-space: pre;" direction="ltr">Does request</text><text x="0" y="46.23287671232877" font-family="Virgil, Segoe UI Emoji" font-size="21.693150684931503px" fill="#000000" text-anchor="start" style="white-space: pre;" direction="ltr">method match?</text></g><g transform="translate(681.9014522387461 96.76769969873135) rotate(0 13 12.5)"><text x="0" y="18" font-family="Virgil, Segoe UI Emoji" font-size="20px" fill="#000000" text-anchor="start" style="white-space: pre;" direction="ltr">No</text></g><g transform="translate(564 176) rotate(0 95.5 37.5)"><text x="0" y="18" font-family="Virgil, Segoe UI Emoji" font-size="20px" fill="#000000" text-anchor="start" style="white-space: pre;" direction="ltr">Execute method</text><text x="0" y="43" font-family="Virgil, Segoe UI Emoji" font-size="20px" fill="#000000" text-anchor="start" style="white-space: pre;" direction="ltr">not allowed handler</text><text x="0" y="68" font-family="Virgil, Segoe UI Emoji" font-size="20px" fill="#000000" text-anchor="start" style="white-space: pre;" direction="ltr">if user added one</text></g><g stroke-linecap="round"><g transform="translate(758 46) rotate(0 34.49958520598716 -1.919158057495963)"><path d="M0.2 -0.46 C11.83 -1.1, 58.87 -3.06, 70.15 -3.38 M-1.15 -1.75 C10.39 -2.26, 57.92 -1.6, 69.81 -2.04" stroke="#000000" stroke-width="1" fill="none"></path></g><g transform="translate(758 46) rotate(0 34.49958520598716 -1.919158057495963)"><path d="M40.95 10.39 C50.33 3.1, 61.27 0.42, 71.71 -0.18 M41.18 7.62 C47.51 6.37, 53.47 3.52, 69 -1.66" stroke="#000000" stroke-width="1" fill="none"></path></g><g transform="translate(758 46) rotate(0 34.49958520598716 -1.919158057495963)"><path d="M40.77 -10.13 C50.29 -10.64, 61.29 -6.54, 71.71 -0.18 M41 -12.9 C47.42 -9.96, 53.41 -8.62, 69 -1.66" stroke="#000000" stroke-width="1" fill="none"></path></g></g><g transform="translate(845 33) rotate(0 96 12.5)"><text x="0" y="18" font-family="Virgil, Segoe UI Emoji" font-size="20px" fill="#000000" text-anchor="start" style="white-space: pre;" direction="ltr">Run "before" filters</text></g><g stroke-linecap="round"><g transform="translate(1051 45.611150993060505) rotate(0 24.121314207390014 -0.12089658112952861)"><path d="M0.19 0.9 C8.61 1.2, 41.45 0.82, 49.42 0.71 M-1.17 0.33 C7.22 0.34, 40.1 -1.44, 48.69 -1.24" stroke="#000000" stroke-width="1" fill="none"></path></g><g transform="translate(1051 45.611150993060505) rotate(0 24.121314207390014 -0.12089658112952861)"><path d="M27.34 8.28 C31.2 4.02, 35.19 5.45, 50 -2.46 M25.9 6.71 C33.39 3.95, 43.05 0.5, 49.53 -1.92" stroke="#000000" stroke-width="1" fill="none"></path></g><g transform="translate(1051 45.611150993060505) rotate(0 24.121314207390014 -0.12089658112952861)"><path d="M27.01 -8.47 C30.79 -9.26, 34.85 -4.35, 50 -2.46 M25.57 -10.04 C33.06 -6.63, 42.84 -3.89, 49.53 -1.92" stroke="#000000" stroke-width="1" fill="none"></path></g></g><g transform="translate(1113 32) rotate(0 105 12.5)"><text x="0" y="18" font-family="Virgil, Segoe UI Emoji" font-size="20px" fill="#000000" text-anchor="start" style="white-space: pre;" direction="ltr">Run request handler </text></g><g stroke-linecap="round"><g transform="translate(1332 44) rotate(0 24.8997336796765 0.8847186406515561)"><path d="M1.01 0.47 C4.95 0.6, 16.44 -0.23, 24.56 -0.17 C32.68 -0.1, 45.51 0.67, 49.71 0.85 M0.08 -0.32 C3.83 0.03, 15.79 0.62, 23.91 1.02 C32.02 1.42, 44.46 1.93, 48.8 2.09" stroke="#000000" stroke-width="1" fill="none"></path></g><g transform="translate(1332 44) rotate(0 24.8997336796765 0.8847186406515561)"><path d="M36.93 6.66 C40.42 4.14, 45.68 2.71, 48.72 0.81 M35.94 5.47 C41.14 4.31, 46.3 3.58, 48.21 1.47" stroke="#000000" stroke-width="1" fill="none"></path></g><g transform="translate(1332 44) rotate(0 24.8997336796765 0.8847186406515561)"><path d="M37.28 -2.23 C40.57 -1.37, 45.7 0.57, 48.72 0.81 M36.29 -3.42 C41.38 -1.16, 46.41 1.52, 48.21 1.47" stroke="#000000" stroke-width="1" fill="none"></path></g></g><g transform="translate(1393 32) rotate(0 92 12.5)"><text x="0" y="18" font-family="Virgil, Segoe UI Emoji" font-size="20px" fill="#000000" text-anchor="start" style="white-space: pre;" direction="ltr">Run "after" filters</text></g><g stroke-linecap="round"><g transform="translate(1592 44) rotate(0 21.092579148337222 0.18835760969651005)"><path d="M-1.02 0.88 C6.33 0.91, 35.8 -0.3, 43.2 -0.51 M0.65 0.3 C7.93 0.55, 35.33 0.68, 42.36 0.76" stroke="#000000" stroke-width="1" fill="none"></path></g><g transform="translate(1592 44) rotate(0 21.092579148337222 0.18835760969651005)"><path d="M23.57 8.29 C25.91 7.14, 30.81 6.36, 42.99 2.7 M23.01 7.53 C29 5.05, 35.79 4.25, 43.19 0.95" stroke="#000000" stroke-width="1" fill="none"></path></g><g transform="translate(1592 44) rotate(0 21.092579148337222 0.18835760969651005)"><path d="M23.69 -6.42 C25.92 -4.22, 30.8 -1.65, 42.99 2.7 M23.14 -7.18 C28.95 -5.04, 35.7 -1.22, 43.19 0.95" stroke="#000000" stroke-width="1" fill="none"></path></g></g><g transform="translate(1649 19) rotate(0 83 37.5)"><text x="0" y="18" font-family="Virgil, Segoe UI Emoji" font-size="20px" fill="#000000" text-anchor="start" style="white-space: pre;" direction="ltr">Send response </text><text x="0" y="43" font-family="Virgil, Segoe UI Emoji" font-size="20px" fill="#000000" text-anchor="start" style="white-space: pre;" direction="ltr">if it wasn't sent</text><text x="0" y="68" font-family="Virgil, Segoe UI Emoji" font-size="20px" fill="#000000" text-anchor="start" style="white-space: pre;" direction="ltr">before </text></g><g stroke-linecap="round"><g transform="translate(657 86) rotate(0 -0.04782902486618923 32.06739332921805)"><path d="M0.27 -1.14 C-0.1 9.43, -0.9 52.79, -1.11 63.83 M-1.05 0.87 C-1.16 11.59, 0.61 54.87, 1.02 65.28" stroke="#000000" stroke-width="1" fill="none"></path></g><g transform="translate(657 86) rotate(0 -0.04782902486618923 32.06739332921805)"><path d="M-12.24 35.66 C-6.09 46.65, 0.46 60.04, 1.29 63.89 M-10.24 37.84 C-7.32 47.7, -3.13 57.73, 0.86 65.21" stroke="#000000" stroke-width="1" fill="none"></path></g><g transform="translate(657 86) rotate(0 -0.04782902486618923 32.06739332921805)"><path d="M8.26 34.86 C6.41 46.21, 4.96 59.91, 1.29 63.89 M10.26 37.04 C6.06 47.22, 3.13 57.53, 0.86 65.21" stroke="#000000" stroke-width="1" fill="none"></path></g></g><g transform="translate(777 56) rotate(0 17 12.5)"><text x="0" y="18" font-family="Virgil, Segoe UI Emoji" font-size="20px" fill="#000000" text-anchor="start" style="white-space: pre;" direction="ltr">Yes</text></g></svg>